<?xml version="1.0" encoding="utf-8"?>
<!-- Generator: Adobe Illustrator 19.2.1, SVG Export Plug-In . SVG Version: 6.00 Build 0)  -->
<svg version="1.1" id="layer" xmlns="http://www.w3.org/2000/svg" xmlns:xlink="http://www.w3.org/1999/xlink" x="0px" y="0px"
	 viewBox="0 0 652 652" style="enable-background:new 0 0 652 652;" xml:space="preserve">
<style type="text/css">
	.st0{fill:#282828;}
	.st1{fill:#FF9900;}
</style>
<path class="st0" d="M174.8,336.8c0,6.3-6,9.4-18.3,9.4h-24.1c-12.6,0-18.7-3.1-18.7-9.4v-68.2H93.1v69.3c-0.1,3.9,0.6,7.8,2,11.4
	c1.2,3,3.1,5.7,5.4,8c2.1,2.2,4.7,3.9,7.5,5.1c5.7,2.3,11.7,3.6,17.8,3.8h28.3c14.1,0,24.5-2.3,31-7c6.8-5,10.5-13.1,10-21.5v-69.2
	h-20.4C174.8,268.5,174.8,336.8,174.8,336.8z M336.2,268.5c-4.3-0.3-8.4,1.8-10.7,5.4l-45.9,67.2l-47.2-67.2
	c-2.5-3.5-6.5-5.5-10.7-5.4c-4.6-0.1-8.7,2.8-10.1,7.1c-0.5,1.5-0.8,3-0.7,4.6v87h20.4v-60l36.7,54.4c2.5,4.1,6.9,6.5,11.6,6.5
	c2.2,0,4.3-0.6,6.3-1.7c2.2-1.1,4-2.8,5.4-4.8l36.1-53.8v59.4h20.4v-86.1c0.2-3.3-0.9-6.6-3.1-9.1
	C342.5,269.7,339.4,268.4,336.2,268.5z M382.9,268.5h-20.4v98.1h20.4L382.9,268.5L382.9,268.5z M471.7,275.5
	c-3-6.2-10.5-8.7-16.6-5.7c-2.5,1.2-4.5,3.2-5.7,5.7L394.7,367h24l14.5-25.9h53.8L502,367h23L471.7,275.5z M475.2,320.9h-30.1
	l14.9-24.9L475.2,320.9z M58.6,287.7l-0.3,35.1c0.6,17.7-5.4,22.3-10.2,24.1c-8.2,2.6-16.6,4-25.2,4.3h-1.2v22.2h1.5
	c8.3-0.6,16.6-1.9,24.7-4c21.1-4.5,30.4-19,30.4-46.8l0.7-54.1H58.7L58.6,287.7L58.6,287.7z"/>
<path class="st1" d="M573.7,270.4c-26.5,0-48,21.5-48,48c0,26.5,21.5,48,48,48l0,0c26.5,0,48-21.5,48-48
	C621.7,291.9,600.2,270.4,573.7,270.4z M595.6,348.2l-21.9-11.5l-21.9,11.5l4.2-24.4l-17.6-17.2l24.5-3.5l10.7-22.2l10.7,22.2
	l24.5,3.5l-17.6,17.2L595.6,348.2L595.6,348.2z"/>
</svg>
